<?xml version="1.0" encoding="utf-8"?>
<!-- Generator: Adobe Illustrator 24.1.2, SVG Export Plug-In . SVG Version: 6.00 Build 0)  -->
<svg version="1.1" id="Warstwa_3" xmlns="http://www.w3.org/2000/svg" xmlns:xlink="http://www.w3.org/1999/xlink" x="0px" y="0px"
	 viewBox="0 0 430 430" style="enable-background:new 0 0 430 430;" xml:space="preserve">
<style type="text/css">
	.st0{fill:#08a88a;}
	.st1{fill:#121331;}
	.st2{fill:#08a88a;fill-opacity:0;}
	.st3{fill:none;}
</style>
<g>
	<path class="st0" d="M335.39,338.6H169.83c-3.48,0-6.3-2.82-6.3-6.3s2.82-6.3,6.3-6.3h165.56c3.48,0,6.3,2.82,6.3,6.3
		S338.87,338.6,335.39,338.6z M335.39,298.6H169.83c-3.48,0-6.3-2.82-6.3-6.3s2.82-6.3,6.3-6.3h165.56c3.48,0,6.3,2.82,6.3,6.3
		S338.87,298.6,335.39,298.6z M335.39,258.6H169.83c-3.48,0-6.3-2.82-6.3-6.3s2.82-6.3,6.3-6.3h165.56c3.48,0,6.3,2.82,6.3,6.3
		S338.87,258.6,335.39,258.6z M169.83,218.6c-3.47,0-6.29-2.81-6.3-6.28c-0.01-3.48,2.8-6.31,6.28-6.32l62.56-0.17
		c0.01,0,0.01,0,0.02,0c3.47,0,6.29,2.81,6.3,6.28c0.01,3.48-2.8,6.31-6.28,6.32l-62.56,0.17
		C169.84,218.6,169.83,218.6,169.83,218.6z M335.45,217.9h-62.63c-3.48,0-6.3-2.82-6.3-6.29l-0.06-78.32c0-1.67,0.66-3.28,1.85-4.46
		c1.18-1.18,2.78-1.84,4.45-1.84c0,0,0.01,0,0.01,0l62.56,0.1c3.47,0.01,6.28,2.82,6.29,6.29l0.12,78.22c0,1.67-0.66,3.28-1.84,4.46
		C338.73,217.23,337.13,217.9,335.45,217.9z M279.12,205.3h50.02l-0.1-65.63l-49.97-0.08L279.12,205.3z M169.83,178.6
		c-3.47,0-6.29-2.81-6.3-6.28c-0.01-3.48,2.8-6.31,6.28-6.32l62.56-0.17c0.01,0,0.01,0,0.02,0c3.47,0,6.29,2.81,6.3,6.28
		c0.01,3.48-2.8,6.31-6.28,6.32l-62.56,0.17C169.84,178.6,169.83,178.6,169.83,178.6z M169.83,138.6c-3.47,0-6.29-2.81-6.3-6.28
		c-0.01-3.48,2.8-6.31,6.28-6.32l62.56-0.17c0.01,0,0.01,0,0.02,0c3.47,0,6.29,2.81,6.3,6.28c0.01,3.48-2.8,6.31-6.28,6.32
		l-62.56,0.17C169.84,138.6,169.83,138.6,169.83,138.6z M335.39,98.6H169.83c-3.48,0-6.3-2.82-6.3-6.3s2.82-6.3,6.3-6.3h165.56
		c3.48,0,6.3,2.82,6.3,6.3S338.87,98.6,335.39,98.6z"/>
	<path class="st1" d="M96.41,390.69c-23.32,0-42.29-18.97-42.29-42.29V218.64c0-3.48,2.82-6.3,6.3-6.3s6.3,2.82,6.3,6.3V348.4
		c0,16.37,13.32,29.69,29.69,29.69c16.37,0,29.69-13.32,29.69-29.69V45.62c0-3.48,2.82-6.3,6.3-6.3s6.3,2.82,6.3,6.3V348.4
		C138.7,371.72,119.73,390.69,96.41,390.69z"/>
	<path class="st1" d="M333.41,390.68h-0.33c-3.48,0-6.3-2.82-6.3-6.3s2.82-6.3,6.3-6.3h0.33c16.37,0,29.69-13.31,29.69-29.68V45.61
		c0-3.48,2.82-6.3,6.3-6.3s6.3,2.82,6.3,6.3V348.4C375.7,371.72,356.73,390.68,333.41,390.68z"/>
	<path class="st1" d="M60.81,225.12c-3.47,0-6.29-2.81-6.3-6.28c-0.01-3.48,2.8-6.31,6.28-6.32l71.76-0.19c0.01,0,0.01,0,0.02,0
		c3.47,0,6.29,2.81,6.3,6.28c0.01,3.48-2.8,6.31-6.28,6.32l-71.76,0.19C60.82,225.12,60.82,225.12,60.81,225.12z"/>
	<path class="st1" d="M333.08,390.69H96.41c-3.48,0-6.3-2.82-6.3-6.3s2.82-6.3,6.3-6.3h236.66c3.48,0,6.3,2.82,6.3,6.3
		S336.56,390.69,333.08,390.69z"/>
	<path class="st1" d="M369.58,52.19H132.91c-3.48,0-6.3-2.82-6.3-6.3s2.82-6.3,6.3-6.3h236.66c3.48,0,6.3,2.82,6.3,6.3
		S373.06,52.19,369.58,52.19z"/>
</g>
</svg>
